<?xml version="1.0" encoding="UTF-8"?>
<svg width="752pt" height="752pt" version="1.1" viewBox="0 0 752 752" xmlns="http://www.w3.org/2000/svg">
 <defs>
  <clipPath id="a">
   <path d="m139.21 385h473.58v171h-473.58z"/>
  </clipPath>
 </defs>
 <g clip-path="url(#a)">
  <path d="m146.61 548.04h60.121c3.4141 0 6.3125-2.332 7.1445-5.5508h21.969c8.3672 8.1992 19.805 13.277 32.418 13.277s24.051-5.0781 32.418-13.277l39.102 0.003906c0.70312 3.3555 3.6758 5.8789 7.2422 5.8789h143.67c3.5625 0 6.5391-2.5234 7.2422-5.8789h17.691c8.3672 8.1992 19.805 13.277 32.418 13.277 19.438 0 36.094-12.039 42.965-29.043l20.242-26.285c1-1.2969 1.5391-2.8828 1.5391-4.5156l0.003906-103.05c0-1.9727-0.78516-3.8594-2.1836-5.2461-1.3867-1.3789-3.2617-2.1523-5.2148-2.1523h-0.042969l-18.961 0.10938c-16.57 0.10156-31.527 9.3477-39.016 24.125l-21.293 42.016c-9.3359-3.3984-35.383-15.652-50.613-50.418-1.168-2.6719-3.8008-4.4062-6.7148-4.4297l-37.629-0.30078h-0.0625c-1.9492 0-3.8242 0.76953-5.2109 2.1445-1.4023 1.3867-2.1914 3.2812-2.1914 5.2539v51.258l-0.82422 0.36719c-19 8.4492-40.422 7.6914-58.777-2.0898-1.5312-0.81641-3.3086-1.0703-5.0039-0.71094l-70.781 14.875c-6.0664-2.9219-12.844-4.6094-20.016-4.6094-14.043 0-26.625 6.3008-35.133 16.203l-19.926 4.1875c-3.0781 0.64844-5.2852 3.125-5.7656 6.0547l-28.309 5.9727c-19.434 3.6992-34.582 18.602-38.59 37.977l-1.1758 5.6914c-0.45312 2.1797 0.10547 4.4453 1.5078 6.1719 1.4062 1.7188 3.5117 2.7188 5.7383 2.7188zm336.69-14.469h-128.88v-17.445c0-11.137 9.0625-20.199 20.199-20.199l108.68 0.003906zm64.746 7.3984c-17.402 0-31.551-14.156-31.551-31.551 0-17.398 14.156-31.551 31.551-31.551 17.398 0 31.551 14.156 31.551 31.551 0.003906 17.398-14.148 31.551-31.551 31.551zm-11.281-77.59 23.809-46.977c4.9727-9.8164 14.898-15.953 25.902-16.02l11.52-0.070313v93.094l-4.6914 6.0898c-4.5586-20.805-23.105-36.438-45.258-36.438-4.2422 0-8.332 0.62109-12.238 1.6953 0.35547-0.42187 0.69922-0.86719 0.95703-1.375zm-98.297-51.949 25.457 0.21094c9.4961 19.625 22.027 32.57 33.363 40.996h-58.82zm-78.922 56.387c21.852 10.746 46.949 11.25 69.312 1.3008l3.7812-1.6836h95.18 0.015625 0.023438 0.66406c-15.816 7.3867-26.828 23.402-26.828 41.98 0 6.4883 1.3516 12.664 3.7695 18.273l-7.3633 0.003906v-39.164c0-4.0859-3.3164-7.3984-7.3984-7.3984h-116.08c-19.297 0-34.996 15.699-34.996 34.996v11.566h-28.773c2.418-5.6133 3.7695-11.789 3.7695-18.273 0-11.371-4.1328-21.785-10.953-29.859zm-91.281 10.047c17.402 0 31.551 14.156 31.551 31.551 0 17.398-14.156 31.551-31.551 31.551-17.398 0-31.551-14.156-31.551-31.551 0-17.398 14.152-31.551 31.551-31.551zm-49.586 19.559 5.1445-1.082c-1.2266 4.1523-1.9102 8.5312-1.9102 13.074 0 6.4883 1.3516 12.664 3.7695 18.273h-10.156zm-36.637 12.566 20.902-4.4062-2.8828 27.664h-44.199c3.6914-11.906 13.617-20.867 26.18-23.258z" fill="#fff"/>
 </g>
 <path d="m268.26 530.31c11.52 0 20.891-9.3711 20.891-20.891s-9.3711-20.891-20.891-20.891-20.891 9.3711-20.891 20.891 9.3711 20.891 20.891 20.891zm0-26.977c3.3555 0 6.0898 2.7305 6.0898 6.0898s-2.7305 6.0898-6.0898 6.0898-6.0898-2.7305-6.0898-6.0898 2.7305-6.0898 6.0898-6.0898z" fill="#fff"/>
 <path d="m548.04 488.53c-11.52 0-20.891 9.3711-20.891 20.891s9.3711 20.891 20.891 20.891 20.891-9.3711 20.891-20.891-9.3711-20.891-20.891-20.891zm0 26.977c-3.3555 0-6.0898-2.7305-6.0898-6.0898s2.7305-6.0898 6.0898-6.0898 6.0898 2.7305 6.0898 6.0898-2.7344 6.0898-6.0898 6.0898z" fill="#fff"/>
</svg>
